# xmcd
# 
# Track frame offsets:
#     187
#     26627
#     53785
#     82467
#     133357
#     156812
#     181640
#     203710
#     240787
#     261262
# 
# Disc length: 3946
# 
# Revision: 1
# Processed by: cddbd v1.5.2PL0 Copyright (c) Steve Scherf et al.
# Submitted via: BonkEnc v1.0.8
# 
DISCID=840f680a
DTITLE=滝野聡 - Clair Voyant-Clamor
DYEAR=1994
DGENRE=Fusion
TTITLE0=Enigma
TTITLE1=Picasso
TTITLE2=Speedy
TTITLE3=Nothing Personal
TTITLE4=Uniform
TTITLE5=Mahogany Bird
TTITLE6=Line Game
TTITLE7=Mount Olympus
TTITLE8=Tyrone
TTITLE9=A7
EXTD=YEAR: 1994
EXTT0=
EXTT1=
EXTT2=
EXTT3=
EXTT4=
EXTT5=
EXTT6=
EXTT7=
EXTT8=
EXTT9=
PLAYORDER=
